<?xml version="1.0" encoding="UTF-8"?>
<svg id="Honda_Power_Of_Dreams_22" xmlns="http://www.w3.org/2000/svg" version="1.1" viewBox="0 0 164 35">
  <defs>
    <style>
      .cls-1 {
        fill: none;
      }

      .cls-1, .cls-2 {
        stroke-width: 0px;
      }

      .cls-2 {
        fill: #c00;
      }
    </style>
  </defs>
  <rect class="cls-1" x="-18" y="-18" width="199.9" height="70.9"/>
  <g>
    <path class="cls-2" d="M128.6,25.3v-2.5l2.5-.3c.9-.1,1.2-.9,1.3-1.1l6.3-10.1c.5-.8,0-1.5-.6-1.6l-3.3-.4v-2.5h14.2c.8,0,1.3.6,1.6,1l8.3,12.7c.7,1,1.2,1.8,2,1.9l2.6.3v2.6h-16v-2.5l2-.2c1-.1,1.8-.6,1-1.7l-.8-1.2h-11.3l-.9,1.4c-.5.9,0,1.4.8,1.5l2,.2v2.5h-11.7M140.5,16.3h7.2l-3.7-5.7-3.5,5.7"/>
    <path class="cls-2" d="M118,6.8h-18.3v2.5l2.3.2c.8,0,1.2.7,1.2,1.6v9.9c0,.7-.3,1.3-1,1.4l-2.5.3v2.4h18.3c8.4,0,12-4.1,12-9.5.1-4.7-3.6-8.8-12-8.8M115.2,21.7h-4.7v-11.4h4.7c4.5,0,6.4,1,6.4,5.7s-1.9,5.7-6.4,5.7"/>
    <path class="cls-2" d="M.5,25.3h14.8v-2.5l-2.5-.3c-.6-.1-1.2-.4-1.2-1.7v-3h11.4v2.8c0,.8-.1,1.6-1.1,1.7l-2.6.3v2.7h14.8v-2.5l-2.6-.3c-.5-.1-1.1-.5-1.1-1.5v-9.7c0-1,.4-1.6,1.1-1.7l2.6-.3v-2.5h-14.8v2.5l2.6.3c.8.1,1.1.8,1.1,1.7v2.9h-11.4v-2.9c0-1.1.4-1.6,1.2-1.7l2.5-.3v-2.5H.5v2.5l2.5.3c1,0,1.2.8,1.2,1.8v9.4c0,1-.3,1.7-1.2,1.8l-2.5.3v2.4"/>
    <path class="cls-2" d="M34.8,15.9c0-5.8,4.7-9.9,15.1-9.9,10.4,0,15.1,4.1,15.1,9.9s-4.7,10-15.1,10-15.1-4-15.1-10M49.9,9.6c-4.2,0-6.6,1.6-6.6,6.3s2.4,6.4,6.6,6.4,6.6-1.6,6.6-6.4-2.4-6.3-6.6-6.3"/>
    <path class="cls-2" d="M65.8,25.3h11.8v-2.5l-2.6-.3c-.7-.1-1.2-.7-1.2-1.5v-9.4l9.8,12.9c.3.4.9.7,1.5.7h9.3v-13.9c0-.7.2-1.6,1.1-1.7l2.7-.3v-2.5h-11.8v2.5l2.6.3c.9,0,1.1.9,1.1,1.7v9.1l-9.8-12.8c-.4-.5-.8-.8-1.5-.8h-13v2.5l2.5.3c.9,0,1.2.6,1.2,1.8v9.4c0,1.1-.3,1.6-1.2,1.8l-2.4.3v2.4"/>
  </g>
</svg>