<svg xmlns="http://www.w3.org/2000/svg" viewBox="0 0 750 206.375"><path d="M485.3336,233.625c-20.1048,0-36.1631,14.4893-36.1631,34.07,0,19.4511,16.0583,33.68,36.1631,33.68,20.3639,0,36.2912-14.2289,36.2912-33.68C521.6248,248.1143,505.6975,233.625,485.3336,233.625Zm0,49.2136c-9.0072,0-15.1441-6.0044-15.1441-15.1441,0-9.3988,6.1369-15.5342,15.1441-15.5342,9.1383,0,15.2752,6.1354,15.2752,15.5342C500.6088,276.8342,494.4719,282.8386,485.3336,282.8386ZM549.4467,192.5H529.1249V95h20.3218v59.9849L571.9819,127.5h24.7486l-26.4421,30.8719L598.2932,192.5H572.11l-22.6629-30.4812Zm-87.5106,10L426.7084,300h-6.5867l-27.8383-70.4916L364.3175,300h-6.59L322.5,202.5h23.0538l16.9006,48.4738L380.6536,202.5H403.652l18.33,48.4738L438.8823,202.5Zm-116.4836-8.625c-7.9475,0-13.8093-1.6935-20.4525-4.559V167.5621a38.8432,38.8432,0,0,0,19.41,5.3405c12.505,0,17.9746-6.1218,17.9746-18.1054V100h21.8846v57.1413C384.2689,180.5886,368.1183,193.875,345.4525,193.875ZM415.94,153.0165c-16.1863,0-26.2388,7.9631-26.2388,20.1033,0,12.27,9.9215,20.7552,26.37,20.7552,9.1383,0,15.6652-2.8717,19.4527-7.832V192.5h16.9694V149.6224c0-15.4035-13.1849-23.4974-30.6783-23.4974a63.213,63.213,0,0,0-28.46,6.6573V151.449c11.6187-7.4405,19.7147-7.963,24.8035-7.963,8.4862,0,14.23,3.0027,14.23,8.4855v5.7433C428.4725,154.7137,422.9908,153.0165,415.94,153.0165Zm17.2344,19.8423c0,3.917-4.7017,6.6579-11.75,6.6579-6.53,0-10.9666-2.7409-10.9666-6.6579s4.5676-6.6579,10.9666-6.6579C428.3416,166.2009,433.1742,168.9432,433.1742,172.8588Zm27.549-12.6638c0-19.3187,14.8821-34.07,36.6841-34.07a47.1052,47.1052,0,0,1,22.8473,5.7433v21.4088c-8.2242-6.2659-14.8821-8.6151-21.019-8.6151-10.7045,0-17.6245,6.1349-17.6245,15.4035,0,9.0065,6.92,15.2724,18.0176,15.2724,6.7859,0,13.0538-2.0886,20.6259-8.3545v21.0172A46.0835,46.0835,0,0,1,497.8,193.875C475.9984,193.875,460.7232,179.5151,460.7232,160.195ZM529.125,202.5h20.3218V300H529.125ZM755.718,235H776.04v65H755.718ZM850,257.9259V300H829.6783V263.2663c0-6.6432-4.4268-10.8115-10.9423-10.8115-7.2939,0-12.6328,4.1683-12.6328,13.5478V300H785.7815V235h20.3217v6.6432c4.4268-5.08,10.9393-7.9459,19.1483-7.9459C838.9271,233.6973,850,242.6846,850,257.9259ZM755.718,206.25H776.04v19.0175H755.718ZM599.5579,201a39.8485,39.8485,0,0,1,14.98,2.867v17.324a31.4742,31.4742,0,0,0-13.5479-3.2562c-6.9046,0-11.4621,4.4283-11.4621,10.6808V235h21.3615V252.324H589.5278V300H569.206V252.324H555.4V235H569.206V229.137C569.206,212.4637,581.711,201,599.5579,201Zm123.1049,64.8719L750.6676,300H724.484l-22.6629-30.4812V300H681.4993V202.5h20.3218v59.9849L724.3563,235h24.7486ZM676.01,280.62c0,12.9232-12.6637,20.7552-31.4644,20.7552-9.2663,0-17.2314-1.9576-28.198-6.5264l-.131-18.4061c11.8807,6.3954,22.4542,9.6586,30.2883,9.6586,5.2227,0,8.7482-1.5661,8.7482-4.1773,0-9.6585-39.9506-4.6982-39.9506-27.4126,0-12.7923,12.6638-20.8862,30.6813-20.8862a63.8374,63.8374,0,0,1,26.2387,5.6138V256.86c-10.3115-5.3519-20.3639-8.3545-27.6769-8.3545-5.22,0-8.7452,1.5675-8.7452,4.4392C635.8,260.9081,676.01,256.6,676.01,280.62Z" transform="translate(-100 -95)" style="fill:#fabb00"/><path d="M100,100V300H300V100Zm151.4965,55.9016a9.6119,9.6119,0,0,1,8.3223,5.238,15.7117,15.7117,0,0,1,1.498,8.1887,29.8279,29.8279,0,0,1-5.0106,14.3343,46.1834,46.1834,0,0,1-12.2417,12.4326,27.3549,27.3549,0,0,1-9.2255,4.5482,13.5371,13.5371,0,0,1-10.0216-1.1887c-4.1312-2.4648-6.16-7.6145-5.817-12.4136s2.7279-9.249,5.7395-13.0009c5.2949-6.5974,12.5576-11.6135,19.87-15.733C246.7234,157.1165,249.0162,155.9478,251.4965,155.9016ZM233.03,129.5744a14.9062,14.9062,0,0,1,7.2181-1.7268c.792-.0352,1.861.1576,1.7026,1.2018a3.35,3.35,0,0,1-.3878.9768c-.9545,1.8936-1.3358,4.0684-2.5251,5.8243-1.09,1.61-3.1636,3.222-5.22,2.9207a4.8886,4.8886,0,0,1-3.8657-4.9267A5.92,5.92,0,0,1,233.03,129.5744Zm-57.7735,13.973a15.0757,15.0757,0,0,1,7.1686-2.726c2.9781-.5251,1.6358,3.7811,1.1524,5.2489a10.5907,10.5907,0,0,1-4.2964,5.989,4.5033,4.5033,0,0,1-5.1059-.8946C171.8505,148.8937,173.0069,145.3846,175.2564,143.5474Zm-26.5079,15.5982a22.7775,22.7775,0,0,1,11.7828-7.2761,16.0127,16.0127,0,0,1,8.4523.001,10.1464,10.1464,0,0,1,6.3659,5.3213c1.198,2.6808.9212,5.7831.2962,8.6526a40.9185,40.9185,0,0,1-10.7512,19.7539,19.6635,19.6635,0,0,1-6.9079,4.9006,9.44,9.44,0,0,1-9.7539-1.5863c-3.3045-2.8264-4.68-7.246-4.8417-11.4719A24.5525,24.5525,0,0,1,148.7485,159.1456Zm63.6031,57.1484c-.75,10.3855-10.2871,52.2859-28.9022,54.1152-17.7,1.74-5.9144-34.7168-42.8685-35.09-1.0829-.011-10.4021,1.0945-10.3682-8.296.0564-22.5923,12.2158-29.3623,27.804-31.4186C164.7484,195.6153,214.4078,187.8182,212.3516,216.294Zm-13.8938-34.036c-7.8654-1.4-15.329-9.3915-13.4038-17.7339a27.2566,27.2566,0,0,1,5.5643-11.0672,44.0787,44.0787,0,0,1,13.4933-10.6134,55.8316,55.8316,0,0,1,17.2731-6.2449,6.1156,6.1156,0,0,1,3.6938.521c4.448,2.1787,5.1625,8.1546,4.4939,12.512-.6981,4.5492-2.7535,8.8433-4.8837,12.8394a45.3471,45.3471,0,0,1-11.8135,14.3572C208.869,179.9808,203.7972,183.2087,198.4578,182.258Zm53.518,48.7036c-4.5368,9.5923-14.1073,18.09-24.8624,19.4376a10.3466,10.3466,0,0,1-10.822-5.3865c-2.3672-4.3293-1.1-9.4016-.0367-13.9357a30.8791,30.8791,0,0,1,6.1485-12.6927c6.5942-8.0562,15.6467-10.2731,23.8762-10.6063,4.7344-.1407,7.3,4.66,8.0668,8.7058C255.257,221.2919,254.04,226.5971,251.9758,230.9616Zm12.2809-34.9708c-.2231,2.1386-.0012,5.9779-.8915,7.9538a8.1091,8.1091,0,0,1-2.9644,3.5924,3.7814,3.7814,0,0,1-3.0308.5913,3.8733,3.8733,0,0,1-1.6822-1.1646,5.6524,5.6524,0,0,1-1.3919-2.5923c-.6229-2.9458,1.65-5.5442,4.07-6.8574,1.2922-.7009,4.1824-4.1627,5.47-2.8635A1.3154,1.3154,0,0,1,264.2567,195.9908Zm.5562-41.1705a4.3248,4.3248,0,0,1-3.1927,1.5483c-1.622-.0683-2.7686-1.41-3.5913-2.6747-1.7643-2.7119.4264-5.8976,2.6762-7.4709a31.99,31.99,0,0,1,3.1988-1.8444c.6689-.3614,2.11-1.7028,2.8727-1.11a1.9949,1.9949,0,0,1,.5555,1.6716C267.4011,148.2863,267.199,152.2079,264.8129,154.82Z" transform="translate(-100 -95)" style="fill:#fabb00"/></svg>