<svg xmlns="http://www.w3.org/2000/svg" width="125" height="25" viewBox="0 0 125 25">
  <polygon points="120.757 22.696 120.028 22.696 120.028 22.453 121.816 22.453 121.816 22.696 121.095 22.696 121.095 23.853 120.752 23.853"/>
  <polygon points="122.03 22.451 122.329 22.451 122.986 23.211 123.649 22.451 123.946 22.451 123.946 23.853 123.605 23.853 123.605 22.946 122.988 23.644 122.369 22.946 122.369 23.853 122.03 23.853"/>
  <path d="M123.966229.33649174L100.278183.33649174 100.278183.907434402C100.782313 1.27186589 103.267736 2.25097182 103.267736 5.84669582L103.267736 18.175413 103.234937 18.175413 89.6622935.33649174 84.6562196.33649174 84.6562196.907434402C85.1931487 1.04227405 88.3515549 2.75510204 88.3515549 6.18197279L88.3515549 18.3430515C88.3515549 21.9387755 85.8661322 22.9130224 85.3620019 23.2823129L85.3620019 23.8532556 92.0809038 23.8532556 92.0809038 23.2823129C91.5767736 22.9178814 89.0913508 21.9387755 89.0913508 18.3430515L89.0913508 5.40937804 89.1581633 5.40937804 103.436589 24.1897473 104.007532 24.1897473 104.007532 5.84669582C104.043975 4.07798834 105.474976 1.07142857 109.109572 1.07142857L112.469631 1.07142857 112.469631 20.3559281C112.469631 22.6068999 109.982993 23.2786686 109.478863 23.2786686L109.478863 23.8496113 118.818027 23.8496113 118.818027 23.2786686C118.315112 23.2786686 115.828474 22.6068999 115.828474 20.3559281L115.828474 1.07507289 118.785228 1.07507289C122.514577 1.07507289 124.227405 5.24173955 124.529883 5.9803207L124.894315 5.9803207 123.966229.33649174zM83.9540816 18.2094266C83.6516035 18.9480078 81.9387755 23.1146744 78.2094266 23.1146744L72.2971331 23.1146744 72.2971331 12.1282799 74.6829446 12.1282799C78.4122935 12.1282799 78.2057823 13.6406706 78.8131681 15.3875121L79.1775996 15.3875121 79.1775996 8.13046647 78.8131681 8.13046647C78.2057823 9.87730807 78.4098639 11.3896987 74.6829446 11.3896987L72.2983479 11.3896987 72.2983479 1.07507289 76.1953353 1.07507289C79.9246842 1.07507289 81.6375121 5.24173955 81.9399903 5.9803207L82.3044218 5.9803207 81.3641885.33649174 65.9475219.33649174 65.9475219.907434402C66.4516521.907434402 68.9370748 1.91569485 68.9370748 4.16666667L68.9370748 20.0230807C68.9370748 22.2740525 67.1234208 23.2823129 65.9475219 23.2823129L65.9475219 23.8532556 83.383139 23.8532556 84.324587 18.2094266 83.9540816 18.2094266zM63.0915938 12.430758L56.7419825 12.430758 56.7419825 13.0697279C58.0527211 13.0697279 59.7327502 13.3381924 59.7327502 15.2563168L59.7327502 22.5801749C58.6236638 23.0502915 57.1124879 23.4535957 54.7934888 23.4535957 48.5787172 23.4535957 46.697036 17.2728377 46.697036 11.7626336 46.697036 6.25242954 48.9152089.743440233 54.7934888.743440233 57.8850826.743440233 60.9086492 3.26287658 61.9497085 6.58892128L62.2922741 6.58892128 61.6848882 1.3483965C59.4913693.479821323 57.1562722.0239214103 54.7971331.00364431487 47.8097668.00364431487 43.106171 5.14455782 43.106171 11.7626336 43.106171 18.7172012 47.4793489 24.1933916 54.7971331 24.1933916 57.7538873 24.1933916 60.2733236 23.2215743 61.4783771 23.2215743 61.9825073 23.2215743 62.3858115 23.4560253 62.4866375 23.8593294L63.0940233 23.8593294 63.0915938 12.430758zM41.6921769 18.2094266C41.3896987 18.9480078 39.675656 23.1146744 35.9463071 23.1146744L30.0340136 23.1146744 30.0340136 12.1282799 32.4198251 12.1282799C36.1479592 12.1282799 35.9426628 13.6406706 36.5500486 15.3875121L36.9144801 15.3875121 36.9144801 8.13046647 36.5500486 8.13046647C35.9426628 9.87730807 36.1467444 11.3896987 32.4198251 11.3896987L30.0340136 11.3896987 30.0340136 1.07507289 33.931001 1.07507289C37.6603499 1.07507289 39.3731778 5.24173955 39.675656 5.9803207L40.0400875 5.9803207 39.0998542.33649174 23.6844023.33649174 23.6844023.907434402C24.1885326.907434402 26.6739553 1.91569485 26.6739553 4.16666667L26.6739553 20.0230807C26.6739553 22.2740525 25.8685617 23.2155005 24.356171 23.2823129 23.4487366 23.2823129 21.9715743 23.5847911 18.8471817 20.1919339L12.0942663 12.9689018C14.9829932 12.4975705 18.3090379 10.7823129 18.3090379 6.92055394 18.3090379 2.25097182 14.579689.33649174 10.3802235.33649174L0 .33649174 0 .907434402C.504130224.907434402 2.98955296 1.91569485 2.98955296 4.16666667L2.98955296 20.0230807C2.98955296 22.2740525.504130224 23.2823129 0 23.2823129L0 23.8532556 9.33916424 23.8532556 9.33916424 23.2823129C8.83503401 23.2823129 6.34961127 22.2740525 6.34961127 20.0230807L6.34961127 13.0988824 6.5840622 13.0988824C8.86904762 13.4013605 9.74246842 15.0145773 15.7555879 21.5646259 18.074587 24.085277 20.4251701 23.7827988 24.356171 23.8496113L41.1200194 23.8496113 42.0614674 18.2057823 41.6921769 18.2094266zM6.34961127 12.3639456L6.34961127 1.07507289 10.3802235 1.07507289C12.9312439 1.07507289 14.8821672 3.5617104 14.8821672 6.82094266 14.8821672 10.0801749 12.9385326 12.3639456 10.3802235 12.3639456L6.34961127 12.3639456z"/>
</svg>
