<?xml version="1.0" encoding="UTF-8"?>
<svg width="250px" height="67px" viewBox="0 0 250 67" version="1.1" xmlns="http://www.w3.org/2000/svg" xmlns:xlink="http://www.w3.org/1999/xlink">
    <!-- Generator: Sketch 57.1 (83088) - https://sketch.com -->
    <title>str_212074_1042x279</title>
    <desc>Created with Sketch.</desc>
    <g id="Page-1" stroke="none" stroke-width="1" fill="none" fill-rule="evenodd">
        <g id="str_212074_1042x279" fill="#000000" fill-rule="nonzero">
            <path d="M92.71093,26.81681 C92.71093,24.8308244 95.3307766,24.2496774 97.6581975,24.2496774 C100.721477,24.2496774 103.233461,26.2236559 103.794343,29.0165233 L105.944391,29.0165233 L105.963567,23.4932258 L103.628955,24.6795341 C102.454458,23.8126165 99.9424736,22.9985305 97.6366251,22.9985305 C93.7368169,22.9985305 89.0076702,24.1344086 89.0076702,28.6346953 C89.0076702,34.3981362 103.422819,33.788172 103.422819,38.3917204 C103.422819,40.6442652 100.606424,41.3214695 97.7900288,41.3214695 C94.1634708,41.3214695 91.9415149,38.6318638 91.4189837,35.7141219 L89.0388303,35.7141219 L89.0388303,42.0971326 L91.4357622,40.7859498 C93.5474593,41.9026165 95.3403643,42.536595 97.6438159,42.536595 C102.825983,42.536595 106.891179,40.87 106.891179,36.7299283 C106.891179,29.7657706 92.7157239,30.4573835 92.7157239,26.8048029 L92.71093,26.81681 Z M110.977948,28.7139427 L115.194151,25.2294624 L118.37488,25.2294624 L118.37488,34.9360573 L116.037872,36.9364516 L125.438639,36.9364516 L123.089645,34.9360573 L123.089645,25.2390681 L126.279962,25.2390681 L130.488974,28.7235484 L130.488974,23.8462366 L110.977948,23.8462366 L110.977948,28.7139427 Z M117.689358,41.7417204 L120.747843,44.4001075 L123.801534,41.7417204 L120.733461,39.1289606 L117.689358,41.7417204 Z M203.604986,32.8996416 L205.891659,34.7271326 L205.891659,37.8754122 C205.891659,39.5372043 203.449185,40.8772043 201.675455,40.8772043 C196.004314,40.8772043 195.33557,35.9350538 195.33557,32.7819713 C195.33557,28.3681362 197.073346,24.5666667 201.682646,24.5666667 C205.671141,24.5666667 207.327421,26.6583154 208.698466,29.751362 L210.668744,29.751362 L210.668744,23.8414337 L208.310163,24.9749104 C207.466443,24.5090323 205.532119,23.3155197 201.713806,23.3155197 C194.762704,23.3155197 189.892138,26.3077061 189.892138,32.6811111 C189.892138,39.5011828 194.70278,42.2051971 201.59396,42.2051971 C203.530681,42.2051971 205.908437,41.5424014 208.065676,40.255233 L210.668744,41.7465233 L210.668744,34.7223297 L212.933845,32.8948387 L203.604986,32.8996416 Z M235.834132,26.8192115 C235.834132,24.8332258 238.451582,24.2520789 240.788591,24.2520789 C243.842282,24.2520789 246.332694,26.2260573 246.92953,29.0189247 L249.041227,29.0189247 L249.06999,23.4956272 L246.752157,24.6963441 C245.553691,23.8294265 243.065676,23.0153405 240.759827,23.0153405 C236.855225,23.0153405 232.130872,24.1512186 232.130872,28.6515054 C232.130872,34.4149462 246.512464,33.8025806 246.512464,38.4085305 C246.512464,40.6610753 243.688878,41.3382796 240.877277,41.3382796 C237.260307,41.3382796 235.076702,38.6486738 234.520614,35.7309319 L232.174017,35.7309319 L232.174017,42.1139427 L234.570949,40.8027599 C236.673058,41.9194265 238.453979,42.553405 240.779003,42.553405 C245.9372,42.553405 249.997603,40.88681 249.997603,36.7467384 C249.997603,29.7825806 235.829338,30.4741935 235.829338,26.8216129 L235.834132,26.8192115 Z M226.613135,23.8462366 L217.176414,23.8462366 L219.482263,25.8490323 L219.482263,39.746129 L217.176414,41.7417204 L226.608341,41.7417204 L224.271333,39.746129 L224.271333,25.8466308 L226.613135,23.8462366 Z M173.22627,40.3705018 L173.22627,33.4879928 L178.441994,33.4879928 L180.692713,35.5075986 L180.692713,30.0851613 L178.441994,32.0951613 L173.22627,32.0951613 L173.22627,25.2390681 L181.107383,25.2390681 L185.294823,28.7235484 L185.294823,23.8462366 L165.867689,23.8462366 L168.453979,26.1251971 L168.453979,39.51319 L165.867689,41.739319 L185.282838,41.739319 L185.282838,36.8812186 L181.093001,40.3656989 L173.22627,40.3705018 Z M156.663471,35.4043369 L153.307766,33.4519713 C157.186002,33.3126882 159.88255,32.5682437 159.88255,28.8075986 C159.88255,25.205448 156.222435,23.8510394 151.184084,23.8510394 L138.614573,23.8510394 L140.918025,25.8778495 L140.918025,39.51319 L138.614573,41.7513262 L147.818792,41.7513262 L145.493768,39.5251971 L145.493768,33.4879928 L150.311601,33.4879928 L155.321189,41.739319 L161.591563,41.739319 L159.00767,39.5011828 L156.663471,35.4043369 Z M149.216203,32.0951613 L145.493768,32.0951613 L145.493768,25.2486738 L149.209012,25.2486738 C153.00815,25.2486738 154.381592,25.4888172 154.381592,28.665914 C154.381592,31.8430108 153.000959,32.0951613 149.209012,32.0951613 L149.216203,32.0951613 Z" id="Shape"></path>
            <polygon id="Path" points="47.8691275 22.0859857 47.8691275 24.5810753 44.5685523 24.5810753 44.5853308 28.5266308 39.6931927 28.5266308 39.6931927 24.5810753 35.6064238 24.5810753 44.5685523 15.5564875 44.5685523 22.0859857"></polygon>
            <path d="M16.3326942,0 C16.8360499,2.14688172 18.8662512,4.64677419 26.8168744,4.64677419 C35.5369128,4.64677419 42.4256951,4.68519713 44.0028763,4.68039427 C58.3700863,4.6611828 59.8058485,17.1678495 59.8058485,19.883871 C59.8058485,23.3155197 59.2713327,30.5702509 52.1188878,34.0211111 C50.919384,34.6495047 49.6497324,35.1331687 48.3365292,35.4619713 C51.0786194,37.0565233 53.4827421,42.5053763 55.8485139,48.2424014 C57.3657718,51.933405 58.6697028,55.5763799 60.1941515,57.9994265 C61.0714286,59.3682437 62.3513902,60.914767 63.590604,61.5151254 C64.15628,61.7936918 64.9736337,61.8681362 65.6112176,61.894552 C67.0853308,61.9209677 68.0225312,61.1741219 68.4419942,60.4224731 C67.0445829,61.1429032 65.4458293,60.2687814 64.9688399,59.0536559 C64.513163,58.0470908 64.6045537,56.8767255 65.21093,55.953405 C65.9036433,54.8271326 66.9918504,54.3708602 68.379674,54.4549104 C72.4544583,54.6710394 72.5263663,59.3106093 72.5263663,59.3106093 C72.4592522,61.9257706 71.6514861,63.7412545 69.8513902,65.0884588 C68.6864813,65.9601792 67.3394056,66.529319 65.3691275,66.6133692 C61.05465,66.7958781 55.8533078,64.0582437 51.3111218,50.2259857 C49.6332694,45.1301434 46.9966443,39.8998208 44.2401726,37.7601434 C42.2584478,36.1742084 39.799032,35.307437 37.2627037,35.3010753 L27.2986577,35.2842652 C27.2986577,35.2842652 27.1524449,38.0723297 27.1692234,38.7687455 C27.217162,40.3488889 26.6730585,48.1343369 26.2104506,49.0949104 C25.0575264,49.3350538 22.0038351,48.6722581 21.4693193,48.0526882 C22.1620326,45.3582796 22.3322148,42.065914 22.428092,36.3144803 C22.428092,35.5412186 22.428092,35.2170251 22.428092,35.2170251 C22.428092,35.2170251 22.394535,17.8306452 22.394535,17.8114337 C23.2813998,17.3839785 26.2775647,17.7537993 27.2363375,18.5918996 C27.2363375,18.615914 27.2555129,30.3397133 27.2555129,30.3397133 C27.2555129,30.3397133 39.2569511,30.3229032 44.3096836,30.3229032 C51.4860978,30.3229032 54.9760307,25.9450896 54.9760307,19.8934767 C54.9760307,13.8418638 51.0402685,9.6297491 43.9860978,9.6297491 L24.0244487,9.6297491 C19.4391179,9.6297491 14.2737296,5.40082437 16.3326942,0" id="Path"></path>
            <polygon id="Path" points="63.6025887 40.3392832 59.5661553 44.3977061 55.527325 40.3392832 59.5661553 36.268853"></polygon>
            <path d="M39.7075743,64.2527599 L39.7075743,37.702509 C41.1457335,37.7385305 44.1490892,39.8950179 44.5493768,40.7499283 L44.5493768,55.2329749 L47.8427613,52.0246595 L50.0215724,54.1163082 L39.7075743,64.2527599 Z" id="Path"></path>
            <path d="M17.6390221,65.7992832 C14.8202301,60.9411828 9.34803452,56.7530824 5.35953979,58.2131541 C4.10789977,58.6701393 3.29090246,59.8809851 3.33413231,61.2149462 C3.3485139,62.8959498 4.48465964,64.5121147 6.89837009,64.3151971 C7.52448874,64.2452651 8.12127579,64.0117332 8.62895494,63.6379928 C9.46308725,62.9415771 9.85378715,61.8993548 10.0383509,61.2029391 C11.0556461,61.7444629 11.9797866,62.4457615 12.7756472,63.2801792 C11.2152445,66.8823297 6.16730585,67.9893907 2.99376798,66.0514337 C1.19846596,64.9803943 -0.067114094,62.9175627 0.304410355,59.8557348 C0.580057526,57.5743728 1.96788111,56.080681 3.57622244,55.084086 C5.52253116,53.8833692 7.86912752,53.6912545 10.7334612,54.4260932 C13.9165868,55.2449821 16.689837,57.3078136 17.6605944,58.7486738 C18.3097554,57.8904692 18.8877461,56.9804923 19.3887824,56.0278495 C20.8354183,56.7977789 22.4063319,57.3058703 24.0292426,57.5287455 C23.1088207,59.7500717 19.6548418,64.5121147 17.641419,65.7992832" id="Path"></path>
            <path d="M36.267977,50.5549821 C33.8446788,54.1307168 30.5153404,55.6220072 27.4161074,55.898172 C22.07814,56.3616487 17.6270374,53.5183513 14.9688399,51.1169176 C14.948473,52.2069604 14.8459118,53.2939026 14.6620326,54.3684588 C13.5468275,53.7068994 12.3598425,53.1751369 11.1241611,52.7835125 C11.3713704,49.9377727 11.4593956,47.0804002 11.3878236,44.2248029 L11.3878236,42.1979928 L13.1255992,42.1979928 C14.0220518,45.4519355 17.2746884,48.5065591 20.9611697,50.122724 C24.4199425,51.6356272 28.2310642,51.407491 31.1553212,48.9220072 C33.1735379,47.1833692 34.1299137,42.2916487 31.9774688,39.042509 C31.4875426,38.344959 30.8952031,37.7255991 30.2205177,37.2054122 L36.5004794,37.2054122 C37.0493768,38.0411111 37.6270374,39.2082079 37.8092042,40.0102867 C38.5953979,43.2330108 38.3197507,47.5435842 36.2631831,50.5621864" id="Path"></path>
            <path d="M14.2545542,15.4484229 C18.8494727,9.79784946 27.4496644,10.1364516 32.4712368,13.8034409 C32.6893576,13.9547312 33.8542665,14.8432616 34.0675935,15.0041577 L40.2325024,13.145448 C40.2325024,13.145448 33.0033557,20.443405 32.9554171,20.443405 C30.0239693,15.3331541 20.8077661,13.1670609 18.0608821,18.7984229 C16.6490892,21.6969534 16.9630872,24.934086 20.4338447,27.0809677 L20.4338447,32.5898566 C19.8537872,32.3281004 19.2689358,32.0759498 18.7224353,31.7829749 C10.1629914,27.2202509 11.3111218,19.0817921 14.2641419,15.4532258" id="Path"></path>
        </g>
    </g>
</svg>